<?xml version="1.0" standalone="no"?>
<!DOCTYPE svg PUBLIC "-//W3C//DTD SVG 20010904//EN"
 "http://www.w3.org/TR/2001/REC-SVG-20010904/DTD/svg10.dtd">
<svg version="1.0" xmlns="http://www.w3.org/2000/svg"
 width="512.000000pt" height="512.000000pt" viewBox="0 0 512.000000 512.000000"
 preserveAspectRatio="xMidYMid meet">
<metadata>
Created by potrace 1.14, written by Peter Selinger 2001-2017
</metadata>
<g transform="translate(0.000000,512.000000) scale(0.100000,-0.100000)"
fill="#000000" stroke="none">
<path d="M650 5105 c-307 -63 -535 -278 -627 -590 -16 -56 -18 -177 -20 -1920
-1 -1175 2 -1882 8 -1920 47 -288 245 -527 524 -630 11 -4 56 -16 100 -26 75
-16 187 -17 1955 -16 l1875 2 85 29 c291 97 479 303 557 611 4 17 9 867 10
1890 3 2025 6 1910 -53 2073 -92 254 -328 446 -614 501 -37 7 -668 10 -1895
10 -1489 -1 -1852 -4 -1905 -14z"/>
</g>
</svg>
